<svg width="1024" height="1024" viewBox="0 0 1024 1024" xmlns="http://www.w3.org/2000/svg">
    <title>icon</title>
    <g fill="none" fill-rule="evenodd">
        <path fill="#5D1AE6" d="M0 0h1024v1024H0z"/>
        <g fill="#FFF">
            <path d="M458.667 681.002h232.236V763h85.738l-.01-81.998H832v-77.014h-55.37V334.653H638.244L458.667 603.9v77.102zm72.992-77.36L719.064 468.18v135.463H531.66z"/>
            <path d="M192 617.633h68.79v-145.39h91.542l106.856 145.39h52.38L401.22 465.81c71.936-7.643 125.713-39.23 125.713-101.386 0-71.836-62.158-103.424-161.33-103.424H192v356.633zm32.333-176.784v-81.773h114.404c58.092 0 101.956 9.755 101.956 41.03 0 31.274-48.014 40.742-100.77 40.742h-115.59z"/>
        </g>
    </g>
</svg>