<svg width="595" height="260" viewBox="0 0 595 260" xmlns="http://www.w3.org/2000/svg">
	<title>icon-r4000</title>
	<g fill="#000" fill-rule="evenodd">
		<g>
			<path d="M125 217.53h108.86V260h40.19l-.005-42.47H300v-39.887h-25.955V38.147h-64.868L125 177.597v39.934zm34.215-40.066l87.847-70.16v70.16h-87.847z"/>
			<path d="M0 184.71h32.246v-75.302h42.91l50.088 75.302h24.554l-51.726-78.633c33.72-3.96 58.928-20.32 58.928-52.51C157 16.36 127.863 0 81.376 0H0v184.71zm15.156-91.56V50.796h53.627c27.23 0 47.792 5.052 47.792 21.25S94.068 93.15 69.34 93.15H15.155z"/>
		</g>
		<g>
			<path d="M567.474 62.895c21.23 6.106 30.166 27.92 25.177 63.424-6.043 43-22.11 56.028-47.605 52.445-18.416-2.588-32.042-13.722-35.913-35.91C494.006 136.067 486 117.957 486 80.17c0-43.66 14.446-60.227 41.187-60.227 22.873 0 36.75 12.122 40.287 42.952zm0 0c-1.892-.544-3.882-.964-5.968-1.257-25.496-3.583-46.796 11.912-52.23 50.58-1.68 11.94-1.633 22.106-.144 30.637 5.19 2.33 11.222 3.326 18.055 3.326 26.74 0 41.187-15.253 41.187-66.01 0-6.315-.303-12.062-.9-17.275z"/>
			<path d="M463.773 48.966c20.692 8.51 32.003 33.656 25.275 76.134-8.57 54.113-31.604 72.82-58.226 68.602-12.927-2.047-23.38-8.973-29.73-21.753-16.453-9.447-26.145-33.676-28.7-82.444-3.112-59.373 12.534-82.79 43.684-84.42 23.898-1.254 40.062 11.2 47.697 43.88zm0 0c-3.012-1.24-6.223-2.125-9.606-2.66-26.622-4.218-49.816 15.498-57.523 64.16-4.41 27.836-2.282 47.944 4.447 61.483 6.837 3.924 14.84 5.297 23.983 4.818 31.15-1.633 46.89-23.26 43.272-92.29-.724-13.82-2.256-25.598-4.572-35.512z"/>
			<path d="M284.442 185.625C267.148 176.178 258 151.555 258 100.763c0-59.308 16.86-81.817 48.07-81.817 19.673 0 33.645 8.945 41.285 30.414 25.402 7.266 41.56 34.142 38.196 82.237-4.25 60.79-29.15 83.664-60.673 81.46-17.44-1.22-31.8-9.757-40.435-27.432zm0 0c6.183 3.377 13.407 4.815 21.627 4.815 31.21 0 48.07-20.723 48.07-89.677 0-21.92-2.305-38.815-6.785-51.403-3.47-.992-7.11-1.62-10.9-1.884-31.524-2.204-56.502 21.805-60.324 76.47-1.898 27.16 1.338 47.4 8.312 61.68z"/>
		</g>
	</g>
</svg>