<svg width="200" height="155" viewBox="0 0 180 155" version="1.1" xmlns="http://www.w3.org/2000/svg" xmlns:xlink="http://www.w3.org/1999/xlink" class="Logo-img Logo-img--small"><title>r4-small</title><desc>Created using Figma</desc><g id="Canvas" transform="translate(-1094 -235)"><g id="r4-small"><g id="4"><use xlink:href="#path0_fill" transform="translate(1168.84 256.693)"></use></g><g id="R"><use xlink:href="#path1_fill" transform="translate(1094 235)"></use></g></g></g><defs><path id="path0_fill" fill-rule="evenodd" d="M 0 107.385L 65.4132 107.385L 65.4132 132.808L 89.5629 132.808L 89.5629 107.385L 105.156 107.385L 105.156 83.6693L 89.5629 83.6693L 89.5629 0L 50.5812 0L 0 83.4795L 0 107.385ZM 21 84L 72.288 41L 72.786 41L 72.786 84L 21 84Z"></path><path id="path1_fill" fill-rule="evenodd" d="M 0 110.168L 9.38159 110.168L 9.38159 65.2547L 45.1728 65.2547L 75.279 110.168L 90.037 110.168L 58.9469 63.2677C 79.2145 60.9069 94.366 51.1492 94.366 31.9486C 94.366 9.7577 76.8532 0 48.9115 0L 0 0L 0 110.168ZM 9.10962 55.5572L 9.10962 30.297L 41.3425 30.297C 57.7095 30.297 70.0683 33.3105 70.0683 42.9714C 70.0683 52.6323 56.5405 55.5572 41.6766 55.5572L 9.10962 55.5572Z"></path></defs></svg>
